<svg width="303" height="456" viewBox="0 0 303 456" fill="none" xmlns="http://www.w3.org/2000/svg">
<path d="M151.5 456C235.171 456 303 387.947 303 304C303 220.053 235.171 152 151.5 152C67.8289 152 0 220.053 0 304C0 387.947 67.8289 456 151.5 456Z" fill="black"/>
<path d="M149.522 304.012C66.7644 302.96 -7.28217e-06 235.31 0 152.012C0.000255143 68.0579 67.8202 3.0938e-05 151.48 0C235.141 7.31377e-06 302.961 68.0579 302.961 152.012C302.961 179.71 295.578 205.678 282.681 228.043C271.106 207.916 255.039 190.639 235.639 177.631C210.728 160.928 181.441 152.012 151.48 152.012V304.024L149.522 304.012Z" fill="url(#paint0_linear_2019_22)"/>
<defs>
<linearGradient id="paint0_linear_2019_22" x1="151.48" y1="304.024" x2="151.48" y2="0" gradientUnits="userSpaceOnUse">
<stop stop-color="#F0F0F0"/>
<stop offset="1" stop-color="#3E5FC6"/>
</linearGradient>
</defs>
</svg>
