<svg width="30" height="30" viewBox="0 0 30 30" fill="none" xmlns="http://www.w3.org/2000/svg">
<path d="M18.7502 12.1876C18.5102 12.1876 18.2702 12.0976 18.0864 11.9138C17.7189 11.5463 17.7189 10.9538 18.0864 10.5863L21.4877 7.18506H20.0027C19.4852 7.18506 19.0652 6.76506 19.0652 6.24756C19.0652 5.73006 19.4852 5.31006 20.0027 5.31006H23.7527C24.2702 5.31006 24.6902 5.73006 24.6902 6.24756V9.99756C24.6902 10.5151 24.2702 10.9351 23.7527 10.9351C23.2352 10.9351 22.8152 10.5151 22.8152 9.99756V8.51256L19.4139 11.9138C19.2302 12.0976 18.9902 12.1876 18.7502 12.1876Z" fill="black"/>
<path d="M25.3201 18.3261L22.9314 16.9499C21.5589 16.1624 19.6501 16.4661 18.7576 17.5424C18.7614 17.5386 18.7539 17.5461 18.7576 17.5424C18.5289 17.8536 18.3264 18.1536 17.8839 18.0824C17.3814 17.9999 16.2939 17.5574 14.5051 15.6711C12.7201 13.7924 12.2814 12.6336 12.1989 12.0674C12.1276 11.5724 12.2739 11.5349 12.5251 11.2724C13.7364 9.99742 13.8189 8.00617 12.8064 6.57367L11.2314 4.34617C9.96385 2.55367 7.42885 2.25367 5.8951 3.86617L3.93385 5.93242C3.2626 6.63742 2.75635 7.61617 2.81635 8.75992C2.9401 11.0699 3.9226 15.8024 9.0901 21.2436C14.6251 27.0674 19.9089 27.3636 22.1889 27.1386C23.1226 27.0449 23.8801 26.5499 24.4314 25.9649L26.2089 24.0936C27.8364 22.3761 27.3639 19.5036 25.3201 18.3261ZM20.1264 18.8324C20.6064 18.3261 21.3601 18.2099 22.0014 18.5811L24.3901 19.9574C25.4176 20.5499 25.6164 22.0011 24.8514 22.8074L23.0739 24.6786C22.7251 25.0461 22.3614 25.2411 22.0051 25.2786C20.2126 25.4549 15.5326 25.3049 10.4514 19.9574C5.60635 14.8574 4.7926 10.5524 4.69135 8.66617C4.6651 8.16742 4.8826 7.66867 5.2951 7.22992L7.25635 5.16367C7.90885 4.47742 9.0601 4.52992 9.70135 5.43367L11.2764 7.66117C11.8051 8.40742 11.7226 9.40117 11.1676 9.98617C10.8639 10.3049 10.6126 10.5261 10.4514 10.9799C10.3276 11.3249 10.2639 11.7786 10.3464 12.3449C10.5114 13.4586 11.2389 14.9586 13.1514 16.9686C15.0564 18.9711 16.4926 19.7661 17.5876 19.9386C18.8851 20.1374 20.1264 18.8324 20.1264 18.8324Z" fill="#3E5FC6"/>
</svg>
