<svg width="58" height="57" viewBox="0 0 58 57" fill="none" xmlns="http://www.w3.org/2000/svg">
<path d="M5.25183 30.2585L19.6669 37.621C20.0931 37.8341 21.0231 38.3572 21.5462 37.5047C22.0306 36.7103 21.2169 36.071 20.8294 35.7803L4.05058 22.9347C2.82996 21.966 2.55871 20.0866 3.48871 18.8078C4.41871 17.471 6.35621 17.0835 7.67371 17.9941L24.7237 30.2197C25.0337 30.4522 25.8862 31.0722 26.5062 30.3553C27.1262 29.6772 26.4481 28.9022 26.1769 28.6116L10.3475 11.9103C9.20437 10.651 9.28187 8.55853 10.8125 7.14411C12.0331 6.02036 14.1837 5.98161 15.3462 7.18286L30.9044 23.3803C31.1369 23.6128 31.8537 24.3491 32.59 23.8066C33.3456 23.2253 32.8031 22.3728 32.6675 22.0435L22.9994 6.00099C22.3406 4.97411 22.3212 2.86224 24.1037 1.79661C25.9444 0.711606 27.7075 1.79661 28.3856 2.93974L39.1387 20.2222C40.6694 22.7797 43.0719 24.9303 45.2031 25.9378C46.85 26.7128 48.1287 25.7247 48.3419 24.0003C48.6712 21.3266 49.1944 18.0135 50.1244 15.2235C51.0931 12.2978 54.5031 10.8447 57.4094 12.3172L56.4212 16.2116C55.4331 20.1641 55.3169 24.3103 55.995 28.3403C56.5762 31.7116 57.1575 36.0516 57.08 39.9072C56.9831 45.7197 53.0694 48.2578 49.5625 51.416C34.4306 65.1528 23.4256 46.4753 18.0587 43.821L2.46183 35.1603C1.14433 34.4047 0.853712 32.6416 1.62871 31.3628C2.38433 30.1228 3.93433 29.5803 5.25183 30.2585Z" fill="#4D75F3"/>
<path d="M13.5637 53.8185C7.90618 53.8185 2.65556 50.6022 0.0980614 45.5066C-0.134439 45.0416 0.0593113 44.4603 0.543681 44.2085C1.02806 43.976 1.60931 44.1697 1.84181 44.6347C4.12806 49.1685 8.87497 52.0166 13.9512 51.8616C14.4937 51.881 14.9393 52.2685 14.9393 52.811C14.9587 53.3535 14.5325 53.7991 13.99 53.7991C13.8543 53.8185 13.7187 53.8185 13.5637 53.8185Z" fill="black"/>
<path d="M13.4668 49.0135C13.428 49.0135 13.4087 49.0135 13.3699 49.0135C9.64987 48.6453 6.33675 46.4753 4.53487 43.201C4.283 42.736 4.438 42.1353 4.92237 41.8835C5.38737 41.6316 5.988 41.7866 6.23987 42.271C7.73175 44.9835 10.483 46.7853 13.5637 47.0953C14.0868 47.1535 14.4937 47.6185 14.4355 48.161C14.3774 48.6453 13.9512 49.0135 13.4668 49.0135Z" fill="black"/>
<path d="M46.0363 13.7511C45.5519 13.7511 45.1257 13.3829 45.0676 12.8792C44.5251 7.84165 41.0569 3.52102 36.2519 1.87415C35.7482 1.69977 35.4769 1.15727 35.6513 0.653518C35.8257 0.149768 36.3682 -0.121482 36.8719 0.0528978C42.3744 1.93227 46.3463 6.89227 46.9857 12.6854C47.0438 13.2086 46.6563 13.6929 46.1332 13.7511C46.1138 13.7511 46.0751 13.7511 46.0363 13.7511Z" fill="black"/>
<path d="M41.3281 14.7197C40.8631 14.7197 40.4368 14.371 40.3787 13.8866C39.9137 10.8253 37.9763 8.171 35.1863 6.81471C34.7019 6.58221 34.5081 6.00096 34.7406 5.51658C34.9731 5.03221 35.5543 4.83846 36.0387 5.07096C39.3906 6.71783 41.735 9.8953 42.2969 13.596C42.3744 14.1191 42.0062 14.6228 41.4831 14.7003C41.4249 14.7003 41.3862 14.7197 41.3281 14.7197Z" fill="black"/>
</svg>
