<svg width="69" height="69" viewBox="0 0 69 69" fill="none" xmlns="http://www.w3.org/2000/svg">
<path d="M34.5 69C53.5538 69 69 53.5538 69 34.5C69 15.4462 53.5538 0 34.5 0C15.4462 0 0 15.4462 0 34.5C0 53.5538 15.4462 69 34.5 69Z" fill="#3E5FC6"/>
<path d="M20.72 49V18.085H38.675C40.955 18.085 42.86 18.52 44.39 19.39C45.92 20.23 47.06 21.4 47.81 22.9C48.59 24.37 48.98 26.02 48.98 27.85C48.98 29.83 48.515 31.6 47.585 33.16C46.685 34.69 45.41 35.89 43.76 36.76L49.97 49H40.97L35.84 38.11H28.775V49H20.72ZM28.775 32.125H37.1C38.21 32.125 39.095 31.765 39.755 31.045C40.445 30.295 40.79 29.305 40.79 28.075C40.79 27.265 40.64 26.575 40.34 26.005C40.04 25.435 39.62 25 39.08 24.7C38.54 24.37 37.88 24.205 37.1 24.205H28.775V32.125Z" fill="white"/>
</svg>
